<svg width="15" height="14" viewBox="0 0 15 14" xmlns="http://www.w3.org/2000/svg"><path d="M7.031 14a7.002 7.002 0 0 1-4.97-2.05A6.94 6.94 0 0 1 0 7c0-1.871.732-3.63 2.06-4.95A7 7 0 0 1 7.03 0c1.88 0 3.644.728 4.972 2.05A6.94 6.94 0 0 1 14.062 7a6.94 6.94 0 0 1-2.06 4.95A7 7 0 0 1 7.032 14zm0-12.996c-1.61 0-3.124.624-4.262 1.757A5.94 5.94 0 0 0 1.004 7a5.94 5.94 0 0 0 1.764 4.238 6.006 6.006 0 0 0 4.263 1.757 6 6 0 0 0 4.262-1.757A5.939 5.939 0 0 0 13.057 7a5.94 5.94 0 0 0-1.764-4.238 6.007 6.007 0 0 0-4.262-1.757zm3.516 5.494H7.534V3.484a.503.503 0 0 0-1.005 0v3.014H3.516a.503.503 0 0 0 0 1.004h3.013v3.014a.503.503 0 0 0 1.005 0V7.501h3.013a.503.503 0 1 0 0-1.004z" fill-rule="nonzero"/></svg>
