<?xml version="1.0" encoding="UTF-8"?>
<svg width="24px" height="24px" viewBox="0 0 24 24" version="1.1" xmlns="http://www.w3.org/2000/svg" xmlns:xlink="http://www.w3.org/1999/xlink">
    <g id="风格设计" stroke="none" stroke-width="1" fill="none" fill-rule="evenodd">
        <g id="工具-地图控制" transform="translate(-430.000000, -462.000000)">
            <g id="地图控制展开" transform="translate(362.000000, 252.000000)">
                <g id="底图切换" transform="translate(68.000000, 210.000000)">
                    <rect id="矩形" x="0" y="0" width="24" height="24" rx="4"></rect>
                    <g id="图层集" transform="translate(3.000000, 4.000000)" fill="#FFFFFF">
                        <path d="M9.14285714,14.2476191 L1.71428571,10.4380952 L0,11.3188571 L9.14285714,16 L18.2857143,11.3173333 L16.5714286,10.4380952 L9.14285714,14.2476191 Z M9.14285714,10.9333333 L1.71428571,7.12914286 L0,8.00457143 L9.14285714,12.6872381 L18.2857143,8.00457143 L16.5714286,7.12685714 L9.14285714,10.9333333 Z M18.2857143,4.68571429 L9.14285714,0 L0,4.68266666 L9.14285714,9.36609523 L18.2857143,4.68571429 Z M9.14285714,1.74780952 L14.8784762,4.68571429 L9.14285714,7.61904763 L3.40723809,4.68114286 L9.14285714,1.74780952 Z" id="形状"></path>
                    </g>
                </g>
            </g>
        </g>
    </g>
</svg>