<?xml version="1.0" encoding="UTF-8"?>
<svg width="12px" height="12px" viewBox="0 0 12 12" version="1.1" xmlns="http://www.w3.org/2000/svg" xmlns:xlink="http://www.w3.org/1999/xlink">
    <title>关  闭</title>
    <g id="工具" stroke="none" stroke-width="1" fill="none" fill-rule="evenodd">
        <g id="-图例" transform="translate(-200.000000, -395.000000)" fill="#6D7A90" fill-rule="nonzero">
            <g id="关--闭" transform="translate(200.000000, 395.000000)">
                <path d="M6.90393646,5.96654006 L11.763605,1.10687155 C12.0089088,0.86156768 12.0089088,0.45714779 11.763605,0.211843923 L11.7370856,0.185324586 C11.4917818,-0.0599792818 11.0873619,-0.0599792818 10.842058,0.185324586 L5.9823895,5.05162293 L1.12272099,0.185324586 C0.877417127,-0.0599792818 0.472997238,-0.0599792818 0.22769337,0.185324586 L0.201174033,0.211843923 C-0.0507596685,0.45714779 -0.0507596685,0.86156768 0.201174033,1.10687155 L5.06084254,5.96654006 L0.201174033,10.8262086 C-0.0441298343,11.0715124 -0.0441298343,11.4759323 0.201174033,11.7212362 L0.22769337,11.7477555 C0.472997238,11.9930594 0.877417127,11.9930594 1.12272099,11.7477555 L5.9823895,6.88808702 L10.842058,11.7477555 C11.0873619,11.9930594 11.4917818,11.9930594 11.7370856,11.7477555 L11.763605,11.7212362 C12.0089088,11.4759323 12.0089088,11.0715124 11.763605,10.8262086 L6.90393646,5.96654006 Z" id="路径"></path>
            </g>
        </g>
    </g>
</svg>