<?xml version="1.0" encoding="UTF-8"?>
<svg width="12px" height="12px" viewBox="0 0 12 12" version="1.1" xmlns="http://www.w3.org/2000/svg" xmlns:xlink="http://www.w3.org/1999/xlink">
    <title>不可见</title>
    <g id="工具" stroke="none" stroke-width="1" fill="none" fill-rule="evenodd">
        <g id="-图例" transform="translate(-145.000000, -752.000000)">
            <g id="不可见" transform="translate(145.000000, 752.000000)">
                <rect id="矩形" stroke="rgba(0, 0, 0, .64)" x="0.5" y="0.5" width="11" height="11"></rect>
                <g transform="translate(2.000000, 3.000000)" fill="rgba(0, 0, 0, .64)" fill-rule="nonzero" id="形状">
                    <path d="M2.42793906,3.58565284 C2.32654022,3.39740729 2.25049108,3.18824556 2.25049108,2.95816765 C2.25049108,2.16335308 3.01098244,1.51495172 3.9996212,1.51495172 L4.17706918,1.51495172 L4.78546226,0.824718011 C4.53196514,0.782885662 4.25311831,0.761969494 3.9996212,0.761969494 C2.37723964,0.761969494 0.805557511,1.57770024 0.0450661538,2.7699221 C0.0450661538,2.79083827 -0.0563326922,2.93725148 0.0450661538,3.12549704 C0.399962119,3.71114988 0.93230607,4.19222186 1.59139857,4.5477968 L2.42793906,3.58565284 Z M7.92882652,2.79083827 C7.54858085,2.16335308 6.94018776,1.64044876 6.20504612,1.28487382 L6.76273978,0.636472455 C6.91483806,0.448226899 6.86413863,0.19723282 6.63599122,0.0717357864 C6.40784382,-0.0537612531 6.12899699,-0.0119289044 5.97689871,0.176316652 L1.54069915,5.36352755 C1.38860088,5.5517731 1.43930031,5.80276718 1.66744771,5.92826421 C1.89559512,6.05376125 2.17444195,6.0119289 2.32654022,5.82368335 L2.98563273,5.04978495 C3.31517898,5.11253347 3.64472523,5.15436581 3.9996212,5.15436581 C5.62200275,5.15436581 7.19368488,4.33863507 7.95417624,3.14641321 C7.97952595,3.0836647 8.05557508,2.91633531 7.92882652,2.79083827 Z M4.60801428,4.3177189 C4.25311831,4.44321594 3.89822235,4.44321594 3.5940258,4.38046742 L5.44455477,2.18426925 C5.64735246,2.43526333 5.74875131,2.74900592 5.72340159,3.08366469 C5.67270217,3.62748518 5.21640736,4.10855717 4.60801428,4.3177189 L4.60801428,4.3177189 Z"></path>
                </g>
            </g>
        </g>
    </g>
</svg>