<?xml version="1.0" encoding="UTF-8"?>
<svg width="17px" height="16px" viewBox="0 0 17 16" version="1.1" xmlns="http://www.w3.org/2000/svg" xmlns:xlink="http://www.w3.org/1999/xlink">
    <title>1.Base基础/3.Icon图标/导航/选中/桶管理</title>
    <g id="数据管理系统" stroke="none" stroke-width="1" fill="none" fill-rule="evenodd">
        <g id="数据管理-登记单元" transform="translate(-26.000000, -691.000000)">
            <g id="3.Navigation导航/4.Menu-导航菜单/侧边导航/平铺/扁平风格" transform="translate(0.500000, 56.000000)">
                <g id="1.Base基础/3.Icon图标/导航/选中/桶管理" transform="translate(24.000000, 633.000000)">
                    <path d="M0,0 L20,0 L20,20 L0,20 L0,0 Z" id="chevron-up-circle-(Background)"></path>
                    <g id="数据库-(3)" transform="translate(2.000000, 2.000000)" fill="#0E69F0" fill-rule="nonzero">
                        <path d="M8,13.1851852 C3.58178571,13.1851852 0,11.9250278 0,10.3703704 L0,13.1851852 C0,14.7398426 3.58178571,16 8,16 C12.4182143,16 16,14.7398426 16,13.1851852 L16,10.3703704 C16,11.9250278 12.4182143,13.1851852 8,13.1851852 Z" id="路径"></path>
                        <path d="M8,9.62962963 C3.58178571,9.62962963 0,8.36947222 0,6.81481481 L0,9.62962963 C0,11.184287 3.58178571,12.4444444 8,12.4444444 C12.4182143,12.4444444 16,11.184287 16,9.62962963 L16,6.81481481 C16,8.36947222 12.4182143,9.62962963 8,9.62962963 Z" id="形状结合"></path>
                        <path d="M16,3.55555556 L16,6.37037037 C16,7.92502778 12.4182143,9.18518519 8,9.18518519 C3.58178571,9.18518519 0,7.92502778 0,6.37037037 L0,3.55555556 C0,5.11021296 3.58178571,6.37037037 8,6.37037037 C12.4182143,6.37037037 16,5.11021296 16,3.55555556 Z M1.5,6 C1.22385763,6 1,6.22385763 1,6.5 C1,6.77614237 1.22385763,7 1.5,7 C1.77614237,7 2,6.77614237 2,6.5 C2,6.22385763 1.77614237,6 1.5,6 Z" id="形状结合"></path>
                        <path d="M0,2.81481481 C0,4.36939411 3.581722,5.62962963 8,5.62962963 C12.418278,5.62962963 16,4.36939411 16,2.81481481 C16,1.26023552 12.418278,0 8,0 C3.581722,0 0,1.26023552 0,2.81481481 Z" id="路径"></path>
                    </g>
                </g>
            </g>
        </g>
    </g>
</svg>