<?xml version="1.0" encoding="UTF-8"?>
<svg width="17px" height="16px" viewBox="0 0 17 16" version="1.1" xmlns="http://www.w3.org/2000/svg" xmlns:xlink="http://www.w3.org/1999/xlink">
    <title>1.Base基础/3.Icon图标/导航/选中/开放中心</title>
    <g id="数据管理系统" stroke="none" stroke-width="1" fill="none" fill-rule="evenodd">
        <g id="数据管理-登记单元" transform="translate(-78.000000, -624.000000)" fill="#0E69F0">
            <g id="3.Navigation导航/4.Menu-导航菜单/侧边导航/平铺/扁平风格" transform="translate(0.500000, 56.000000)">
                <g id="1.Base基础/3.Icon图标/导航/选中/开放中心" transform="translate(76.000000, 566.000000)">
                    <g id="bg-code-(1)" transform="translate(2.000000, 2.000000)">
                        <path d="M14.7352381,0 L1.28761905,0 C0.576486685,0 0,0.576486685 0,1.28761905 L0,14.7352381 C0.0124668684,15.4374283 0.585318157,16 1.28761905,16 L14.7352381,16 C15.4286292,15.9877968 15.9877968,15.4286292 16,14.7352381 L16,1.28761905 C16,0.585318157 15.4374283,0.0124668684 14.7352381,0 Z M2.94857142,8.66285713 C2.6868406,8.66666294 2.44917333,8.51070185 2.34849699,8.26907863 C2.24782065,8.02745541 2.30443056,7.74887883 2.49142857,7.56571429 L4.57142858,5.50095238 L2.49142857,3.42095238 C2.32946817,3.25763097 2.26694153,3.02031092 2.32740182,2.79838839 C2.38786211,2.57646586 2.56212398,2.40365617 2.78454467,2.34505505 C3.00696537,2.28645394 3.24375388,2.3509643 3.40571429,2.51428571 L5.91238096,5.05142858 C6.03288518,5.17151511 6.10061897,5.3346383 6.10061897,5.50476191 C6.10061897,5.67488551 6.03288518,5.8380087 5.91238096,5.95809523 L3.40571429,8.47238095 C3.28506821,8.59464617 3.12033894,8.66328337 2.94857142,8.66285713 L2.94857142,8.66285713 Z M9.88952381,8.66285713 L6.33904761,8.66285713 C5.98348143,8.66285713 5.69523809,8.3746138 5.69523809,8.01904762 C5.69523809,7.66348144 5.98348143,7.3752381 6.33904761,7.3752381 L9.90476191,7.3752381 C10.2603281,7.3752381 10.5485714,7.66348144 10.5485714,8.01904762 C10.5485714,8.3746138 10.2603281,8.66285713 9.90476191,8.66285713 L9.88952381,8.66285713 Z" id="形状" fill-rule="nonzero"></path>
                        <rect id="矩形" x="2" y="12" width="5" height="2" rx="0.5"></rect>
                        <rect id="矩形" x="8" y="12" width="1" height="2" rx="0.5"></rect>
                    </g>
                </g>
            </g>
        </g>
    </g>
</svg>