<?xml version="1.0" encoding="UTF-8"?>
<svg width="17px" height="16px" viewBox="0 0 17 16" version="1.1" xmlns="http://www.w3.org/2000/svg" xmlns:xlink="http://www.w3.org/1999/xlink">
    <title>1.Base基础/3.Icon图标/导航/选中/集群管理 2</title>
    <g id="数据管理系统" stroke="none" stroke-width="1" fill="none" fill-rule="evenodd">
        <g id="数据管理-登记单元" transform="translate(-16.000000, -116.000000)">
            <g id="3.Navigation导航/4.Menu-导航菜单/侧边导航/平铺/扁平风格" transform="translate(0.500000, 56.000000)">
                <g id="3.Navigation导航/4.Menu-导航菜单/基础控件/左侧导航/一级备份-10" transform="translate(0.000000, 48.000000)">
                    <g id="1.Base基础/3.Icon图标/导航/选中/集群管理" transform="translate(14.000000, 10.000000)">
                        <path d="M0,0 L20,0 L20,20 L0,20 L0,0 Z" id="chevron-up-circle-(Background)"></path>
                        <g id="服务器-(2)" transform="translate(2.000000, 2.000000)" fill="#0E69F0" fill-rule="nonzero">
                            <path d="M12.7164179,2.94035878 C12.3290406,2.96993755 11.9870783,2.68799131 11.9402985,2.30045225 C11.9551343,1.92960473 12.2481149,1.6308728 12.6169154,1.61055304 C12.9893353,1.60258037 13.3073931,1.87899239 13.3532338,2.25045956 C13.3494277,2.6108959 13.0738152,2.90948278 12.7164179,2.94035878 L12.7164179,2.94035878 Z M10.4477612,2.94035878 C10.1894944,2.95023687 9.94327921,2.83028043 9.79104478,2.62040552 C9.66308383,2.41561496 9.66308383,2.15529393 9.79104478,1.95050338 C9.95403319,1.69160918 10.2605653,1.56253874 10.5585369,1.62733809 C10.8565085,1.69213744 11.0825023,1.93701537 11.1243781,2.24046102 C11.1356749,2.42582851 11.0687172,2.60739882 10.9399388,2.74060818 C10.8111604,2.87381753 10.6324833,2.94633375 10.4477612,2.94035878 L10.4477612,2.94035878 Z M2.32835821,1.6005545 L6.30845771,1.6005545 L6.30845771,2.94035878 L2.32835821,2.94035878 L2.32835821,1.6005545 Z M14.7562189,0.000788192557 L1.27363184,0.000788192557 C0.638092964,-0.0161665735 0.106547402,0.482350339 0.07960199,1.12062461 L0.07960199,4.54012508 L16,4.54012508 L16,1.12062461 C15.9522805,0.472120718 15.4029381,-0.0224788409 14.7562189,0.000788192557 Z M2.32835821,7.46969713 L6.30845771,7.46969713 L6.30845771,8.79950287 L2.32835821,8.79950287 L2.32835821,7.46969713 Z M10.3880597,7.46969713 C10.6655866,7.46390829 10.9214641,7.61973819 11.0447761,7.8696387 C11.1597287,8.11442952 11.1033347,8.40586298 10.9054726,8.58953354 C10.6947076,8.77222331 10.4050502,8.83270396 10.1393035,8.74951017 C9.88003949,8.65516901 9.7005687,8.41602011 9.68159204,8.13959927 C9.70748507,7.76547786 10.0148705,7.47400215 10.3880597,7.46969713 L10.3880597,7.46969713 Z M12.6567164,7.46969713 C13.0291363,7.46172446 13.3471941,7.73813648 13.3930348,8.10960365 C13.378199,8.48045117 13.0852184,8.77918311 12.7164179,8.79950287 C12.343998,8.80747553 12.0259402,8.53106351 11.9800995,8.15959634 C11.9852797,7.7846175 12.283664,7.48037571 12.6567164,7.46969713 Z M0.0597014925,10.3992692 L15.920398,10.3992692 L15.920398,5.86993082 L0,5.86993082 L0.0597014925,10.3992692 Z" id="形状"></path>
                            <path d="M1.25373134,11.4691129 L0.0597014925,11.4691129 L0.0597014925,15.1985681 C0.0620070838,15.4205699 0.154907757,15.6318868 0.316678311,15.7831014 C0.478448866,15.9343159 0.694903308,16.0121679 0.915422886,15.9984512 L15.0945274,15.9984512 C15.3136005,16.006552 15.5268905,15.9267973 15.6874015,15.77676 C15.8479125,15.6267228 15.9424734,15.4187149 15.9502488,15.1985681 L15.9502488,11.4691129 L1.25373134,11.4691129 Z" id="路径"></path>
                        </g>
                    </g>
                </g>
            </g>
        </g>
    </g>
</svg>