<svg width="14" height="14" viewBox="0 0 14 14" xmlns="http://www.w3.org/2000/svg"><path d="M9.323 0c.216 0 .408.134.482.336l.023.09.336 1.964h2.642a.512.512 0 0 1 .093 1.016l-.093.008H11.58l-.651 10.108a.512.512 0 0 1-.423.47l-.089.008H2.903a.512.512 0 0 1-.498-.391l-.013-.087-.653-10.108H.513a.512.512 0 0 1-.092-1.016l.092-.008h2.641L3.492.425a.512.512 0 0 1 .412-.417L3.996 0h5.327zm1.23 3.414H2.766l.618 9.562h6.551l.618-9.562zm-2.185 6.83a.512.512 0 0 1 .092 1.017l-.092.008H4.952a.512.512 0 0 1-.092-1.016l.092-.009h3.416zm.523-9.22H4.428L4.193 2.39h4.933L8.89 1.023z" fill-rule="nonzero"/></svg>
