<svg width="12" height="12" viewBox="0 0 12 12" xmlns="http://www.w3.org/2000/svg"><path d="M11.538 11.077a.461.461 0 0 1 .083.916l-.083.007H.462a.461.461 0 0 1-.083-.916l.083-.007h11.076zM7.733.136a.461.461 0 0 1 .59-.054l.065.054 2.247 2.248c.157.158.18.405.053.588l-.053.065-6.364 6.366a.461.461 0 0 1-.253.13l-.072.005H1.694a.461.461 0 0 1-.454-.378l-.007-.083v-2.24c0-.097.03-.192.088-.271l.046-.056L7.735.136h-.002zm.327.978L2.154 7.027v1.588h1.599L9.655 2.71 8.06 1.114z" fill-rule="nonzero"/></svg>
