<?xml version="1.0" encoding="UTF-8"?>
<svg width="24px" height="24px" viewBox="0 0 24 24" version="1.1" xmlns="http://www.w3.org/2000/svg" xmlns:xlink="http://www.w3.org/1999/xlink">
    <g id="风格设计" stroke="none" stroke-width="1" fill="none" fill-rule="evenodd">
        <g id="工具-地图控制" transform="translate(-430.000000, -366.000000)">
            <g id="地图控制展开" transform="translate(362.000000, 252.000000)">
                <g id="正视" transform="translate(68.000000, 114.000000)">
                    <rect id="矩形" x="0" y="0" width="24" height="24" rx="4"></rect>
                    <path d="M9.80392156,5 L7.88235295,5 C6.24901962,5 5,6.24901961 5,7.88235294 L5,9.80392156 C5,10.3803921 5.38431374,10.7647059 5.96078432,10.7647059 C6.5372549,10.7647059 6.92156863,10.3803921 6.92156863,9.80392156 L6.92156863,7.88235294 C6.92156863,7.30588236 7.30588237,6.92156863 7.88235295,6.92156863 L9.80392156,6.92156863 C10.3803921,6.92156863 10.7647059,6.5372549 10.7647059,5.96078431 C10.7647059,5.38431373 10.3803921,5 9.80392156,5 Z M9.80392156,17.0784314 L7.88235295,17.0784314 C7.30588237,17.0784314 6.92156863,16.6941176 6.92156863,16.117647 L6.92156863,14.1960784 C6.92156863,13.6196079 6.5372549,13.2352941 5.96078432,13.2352941 C5.38431374,13.2352941 5,13.6196079 5,14.1960784 L5,16.117647 C5,17.7509804 6.24901962,19 7.88235295,19 L9.80392156,19 C10.3803921,19 10.7647059,18.6156863 10.7647059,18.0392157 C10.7647059,17.4627451 10.3803921,17.0784314 9.80392156,17.0784314 L9.80392156,17.0784314 Z M18.0392157,13.2352941 C17.4627451,13.2352941 17.0784314,13.6196079 17.0784314,14.1960784 L17.0784314,16.117647 C17.0784314,16.6941176 16.6941176,17.0784314 16.1176471,17.0784314 L14.1960784,17.0784314 C13.6196079,17.0784314 13.2352941,17.4627451 13.2352941,18.0392157 C13.2352941,18.6156863 13.6196079,19 14.1960784,19 L16.1176471,19 C17.7509804,19 19,17.7509804 19,16.117647 L19,14.1960784 C19,13.6196079 18.6156863,13.2352941 18.0392157,13.2352941 L18.0392157,13.2352941 Z M16.1176471,5 L14.1960784,5 C13.6196079,5 13.2352941,5.38431373 13.2352941,5.96078431 C13.2352941,6.5372549 13.6196079,6.92156863 14.1960784,6.92156863 L16.1176471,6.92156863 C16.6941176,6.92156863 17.0784314,7.30588236 17.0784314,7.88235294 L17.0784314,9.80392156 C17.0784314,10.3803921 17.4627451,10.7647059 18.0392157,10.7647059 C18.6156863,10.7647059 19,10.3803921 19,9.80392156 L19,7.88235294 C19,6.24901961 17.7509804,5 16.1176471,5 L16.1176471,5 Z" id="形状" fill="#FFFFFF" fill-rule="nonzero" transform="translate(12.000000, 12.000000) rotate(45.000000) translate(-12.000000, -12.000000) "></path>
                    <circle id="椭圆形" stroke="#FFFFFF" stroke-width="2" cx="12" cy="12" r="2"></circle>
                </g>
            </g>
        </g>
    </g>
</svg>