<?xml version="1.0" encoding="UTF-8"?>
<svg width="24px" height="25px" viewBox="0 0 24 25" version="1.1" xmlns="http://www.w3.org/2000/svg" xmlns:xlink="http://www.w3.org/1999/xlink">
    <g id="风格设计" stroke="none" stroke-width="1" fill="none" fill-rule="evenodd">
        <g id="工具-地图控制" transform="translate(-430.000000, -334.000000)">
            <g id="地图控制展开" transform="translate(362.000000, 252.000000)">
                <g id="正北" transform="translate(68.000000, 82.000000)">
                    <rect id="矩形" x="0" y="0" width="24" height="24" rx="4"></rect>
                    <g id="坐标-导航-2" transform="translate(11.942388, 15.235281) rotate(-45.000000) translate(-11.942388, -15.235281) translate(5.692388, 8.985281)" fill="#FFFFFF" fill-rule="nonzero">
                        <path d="M0.333438918,6.66169021 C-0.0808045112,6.52094555 -0.118522633,5.95142061 0.273417898,5.75732389 L11.7872861,0.0532370587 C12.2087452,-0.155588757 12.655459,0.28890255 12.4471894,0.710154616 L6.75732792,12.2260143 C6.56381752,12.6174809 5.99345386,12.5814764 5.85110892,12.1690618 L4.42995548,8.05473511 L0.333438918,6.66136289 L0.333438918,6.66169021 Z" id="路径"></path>
                    </g>
                    <g id="N" transform="translate(15.597656, 3.273438)" fill="#FFFFFF" fill-rule="nonzero">
                        <polygon id="路径" points="0 0 1.65234375 0 3.80859375 3.16796875 3.80859375 0 5.4765625 0 5.4765625 5.7265625 3.80859375 5.7265625 1.6640625 2.58203125 1.6640625 5.7265625 0 5.7265625"></polygon>
                    </g>
                </g>
            </g>
        </g>
    </g>
</svg>