<?xml version="1.0" encoding="UTF-8"?>
<svg width="16px" height="16px" viewBox="0 0 16 16" version="1.1" xmlns="http://www.w3.org/2000/svg" xmlns:xlink="http://www.w3.org/1999/xlink">
    <title>透明度</title>
    <g id="三维库-标化过程0.2" stroke="none" stroke-width="1" fill="none" fill-rule="evenodd">
        <g id="三维库-2022年10月标化产品版" transform="translate(-439.000000, -570.000000)">
            <g id="透明度" transform="translate(439.000000, 570.000000)">
                <rect id="矩形" fill-opacity="0.01" fill="#FFFFFF" fill-rule="nonzero" x="0" y="0" width="16" height="16"></rect>
                <g transform="translate(1.000000, 1.000000)" fill="#505A6C" id="形状">
                    <path d="M0.3325,4.66375 L4.33125,4.66375 C4.515,4.66375 4.66375,4.50625 4.66375,4.33125 L4.66375,0.3325 C4.66375,0.14875 4.50625,0 4.33125,0 L0.3325,0 C0.14875,0 0,0.1575 0,0.3325 L0,4.33125 C0,4.515 0.1575,4.66375 0.3325,4.66375 L0.3325,4.66375 Z M13.6675,9.33625 L9.66875,9.33625 C9.485,9.33625 9.33625,9.49375 9.33625,9.66875 L9.33625,13.6675 C9.33625,13.85125 9.49375,14 9.66875,14 L13.6675,14 C13.85125,14 14,13.8425 14,13.6675 L14,9.66875 C14,9.485 13.8425,9.33625 13.6675,9.33625 Z M4.33125,9.33625 L0.3325,9.33625 C0.14875,9.33625 0,9.49375 0,9.66875 L0,13.6675 C0,13.85125 0.1575,14 0.3325,14 L4.33125,14 C4.515,14 4.66375,13.8425 4.66375,13.6675 L4.66375,9.66875 C4.66375,9.485 4.515,9.33625 4.33125,9.33625 L4.33125,9.33625 Z M9.33625,5.005 C9.33625,4.82125 9.17875,4.6725 9.00375,4.6725 L5.005,4.6725 C4.82125,4.6725 4.6725,4.83 4.6725,5.005 L4.6725,9.00375 C4.6725,9.1875 4.83,9.33625 5.005,9.33625 L9.00375,9.33625 C9.1875,9.33625 9.33625,9.17875 9.33625,9.00375 L9.33625,5.005 L9.33625,5.005 Z M13.6675,0 L9.66875,0 C9.485,0 9.33625,0.1575 9.33625,0.3325 L9.33625,4.33125 C9.33625,4.515 9.49375,4.66375 9.66875,4.66375 L13.6675,4.66375 C13.85125,4.66375 14,4.50625 14,4.33125 L14,0.3325 C14,0.14875 13.8425,0 13.6675,0 Z"></path>
                </g>
            </g>
        </g>
    </g>
</svg>