<?xml version="1.0" encoding="UTF-8"?>
<svg width="19px" height="18px" viewBox="0 0 19 18" version="1.1" xmlns="http://www.w3.org/2000/svg" xmlns:xlink="http://www.w3.org/1999/xlink">
    <title>1.Base基础/3.Icon图标/其他/chart 2</title>
    <g id="数据管理系统" stroke="none" stroke-width="1" fill="none" fill-rule="evenodd">
        <g id="数据管理-登记单元" transform="translate(-15.000000, -71.000000)">
            <g id="3.Navigation导航/4.Menu-导航菜单/侧边导航/平铺/扁平风格" transform="translate(0.500000, 56.000000)">
                <g id="3.Navigation导航/4.Menu-导航菜单/基础控件/左侧导航/一级备份-9" transform="translate(0.000000, 4.000000)">
                    <g id="1.Base基础/3.Icon图标/其他/chart" transform="translate(14.000000, 10.000000)">
                        <path d="M0,0 L20,0 L20,20 L0,20 L0,0 Z" id="chevron-up-circle-(Background)"></path>
                        <g id="首页概览-未选中" transform="translate(1.250000, 1.250000)">
                            <path d="M4.03843433,0 C1.80806864,0 0,1.80806864 0,4.03843433 C0,6.26880003 1.80806864,8.07686866 4.03843433,8.07686866 L8.07686866,8.07686866 L8.07686866,4.03843433 C8.07686866,1.80806864 6.26880003,0 4.03843433,0 Z" id="路径" fill="#ABB2BE" fill-rule="nonzero"></path>
                            <path d="M17.4998821,4.03843433 C17.4998821,1.80806864 15.6918135,0 13.4614478,0 C11.2310821,0 9.42301344,1.80806864 9.42301344,4.03843433 L9.42301344,8.07686881 L13.4603507,8.07686881 C14.5316001,8.07715968 15.5590736,7.65181148 16.3166642,6.89442659 C17.0742549,6.13704169 17.4998821,5.10968382 17.4998821,4.03843433 L17.4998821,4.03843433 Z" id="路径" fill="#ABB2BE" fill-rule="nonzero"></path>
                            <path d="M13.4614478,9.42301329 L9.42301329,9.42301329 L9.42301329,13.4603507 C9.42256971,15.0939445 10.40634,16.5669102 11.915499,17.1922645 C13.424658,17.8176188 15.1619266,17.4721772 16.3170519,16.3170519 C17.4721772,15.1619266 17.8176188,13.424658 17.1922645,11.915499 C16.5669102,10.40634 15.0939445,9.42256971 13.4603507,9.42301329 L13.4614478,9.42301329 Z" id="路径" fill="#0E69F0"></path>
                            <path d="M0,13.4614478 C0,15.6918135 1.80806864,17.4998821 4.03843433,17.4998821 C6.26880003,17.4998821 8.07686866,15.6918135 8.07686866,13.4614478 L8.07686866,9.42301344 L4.03843433,9.42301344 C1.80849701,9.42301344 0.00060579661,11.2304134 0,13.4603507 L0,13.4614478 Z" id="路径" fill="#ABB2BE" fill-rule="nonzero"></path>
                        </g>
                    </g>
                </g>
            </g>
        </g>
    </g>
</svg>