<?xml version="1.0" encoding="UTF-8"?>
<svg width="50px" height="50px" viewBox="0 0 50 50" version="1.1" xmlns="http://www.w3.org/2000/svg" xmlns:xlink="http://www.w3.org/1999/xlink">
    <g id="数据管理系统2.0" stroke="none" stroke-width="1" fill="none" fill-rule="evenodd">
        <g id="数据总览" transform="translate(-952.000000, -184.000000)">
            <g id="编组备份-2" transform="translate(928.000000, 160.000000)">
                <g id="编组-6" transform="translate(24.000000, 24.000000)">
                    <circle id="椭圆形" fill="#F0BF74" opacity="0.2" cx="25" cy="25" r="25"></circle>
                    <g id="数据入库" transform="translate(13.000000, 13.000000)">
                        <path d="M0.461538462,16.8009231 L0.461538462,23.0769231 C0.461538462,23.3318237 0.668176269,23.5384615 0.923076923,23.5384615 L23.0769231,23.5384615 C23.3318237,23.5384615 23.5384615,23.3318237 23.5384615,23.0769231 L23.5384615,16.8046154 L18.7163077,11.916 L18.8187692,11.64 C18.888,11.4544615 18.9230769,11.2661538 18.9230769,11.0769231 L18.9230769,3.69230769 C18.9230769,1.98646154 16.0643077,0.461538462 12.4615385,0.461538462 C8.85876923,0.461538462 6,1.98646154 6,3.69230769 L6,11.0243077 L0.461538462,16.8009231 Z" id="路径" fill-rule="nonzero"></path>
                        <path d="M19.2516923,11.8015385 L24,16.6153846 L24,23.0769231 C24,23.5867244 23.5867244,24 23.0769231,24 L0.923076923,24 C0.413275616,24 0,23.5867244 0,23.0769231 L0,16.6153846 L5.53846154,10.8387692 L5.53846154,3.69230769 C5.53846154,1.65230769 8.63815385,0 12.4615385,0 C16.2849231,0 19.3846154,1.65230769 19.3846154,3.69230769 L19.3846154,11.0769231 C19.3846154,11.3252308 19.3384615,11.5670769 19.2516923,11.8015385 Z M5.73876923,11.9630769 L1.308,16.584 L1.34215385,16.6153846 L5.77753846,16.6153846 L8.31046154,19.4326154 L15.6950769,19.4326154 L18.36,16.6153846 L22.6735385,16.6153846 L22.6883077,16.6015385 L18.756,12.6147692 C17.8476923,13.6707692 16.0338462,14.4581538 13.8452308,14.6953846 L13.8452308,13.7658462 C16.5590769,13.4473846 18.4606154,12.2289231 18.4606154,11.0769231 L18.4606154,9.23353846 C18.4975385,9.26769231 18.5344615,9.30276923 18.5695385,9.33784615 L18.5695385,9.12369231 C17.6123077,10.0772308 15.8926154,10.7815385 13.8452308,11.0030769 L13.8452308,10.0744615 C16.584,9.75692308 18.5695385,8.53753846 18.5695385,7.38461538 L18.5695385,5.43138462 C17.4046154,6.59446154 15.1061538,7.38461538 12.4615385,7.38461538 C9.81692308,7.38461538 7.51846154,6.59353846 6.35261538,5.43138462 L6.35261538,7.38461538 C6.35261538,8.53753846 8.33815385,9.75692308 11.0769231,10.0744615 L11.0769231,11.0030769 C9.11076923,10.7907692 7.44738462,10.1326154 6.47076923,9.23630769 L6.47076923,10.9624615 C6.466876,11.0004888 6.46502718,11.0386976 6.46523077,11.0769231 C6.46523077,12.2289231 8.36492308,13.4473846 11.0769231,13.7658462 L11.0769231,14.6953846 C8.45723077,14.412 6.37476923,13.3384615 5.73876923,11.9630769 Z M0.923076923,17.5384615 L0.923076923,23.0769231 L23.0769231,23.0769231 L23.0769231,17.5384615 L18.7578462,17.5384615 L16.092,20.3556923 L7.89969231,20.3556923 L5.36584615,17.5384615 L0.923076923,17.5384615 Z M12.4615385,6.46153846 C15.8898462,6.46153846 18.5704615,5.03169231 18.5704615,3.69230769 C18.5704615,2.35292308 15.8898462,0.923076923 12.4615385,0.923076923 C9.03323077,0.923076923 6.35261538,2.35292308 6.35261538,3.69230769 C6.35261538,5.03169231 9.03323077,6.46153846 12.4615385,6.46153846 Z" id="形状" fill="#D55E27"></path>
                        <path d="M8.97784615,14.7821538 C8.70360468,14.7821717 8.45924816,14.9553007 8.36830099,15.2140226 C8.27735382,15.4727444 8.35963011,15.760693 8.57353846,15.9323077 L12.4606154,19.0523077 L16.368,15.9323077 C16.5817768,15.7607992 16.6640977,15.4730847 16.5733913,15.2144575 C16.482685,14.9558302 16.2386875,14.7825629 15.9646154,14.7821538 L13.8507692,14.7821538 L13.8507692,10.0781538 L12.9276923,10.0781538 L12.9276923,15.7052308 L15.1735385,15.7052308 L12.4624615,17.8698462 L9.76523077,15.7052308 L11.9953846,15.7052308 L11.9953846,10.0781538 L11.0723077,10.0781538 L11.0723077,14.7821538 L8.97692308,14.7821538 L8.97784615,14.7821538 Z" id="路径" fill="#F0763E"></path>
                    </g>
                </g>
            </g>
        </g>
    </g>
</svg>