<?xml version="1.0" encoding="UTF-8"?>
<svg width="50px" height="50px" viewBox="0 0 50 50" version="1.1" xmlns="http://www.w3.org/2000/svg" xmlns:xlink="http://www.w3.org/1999/xlink">
    <g id="数据管理系统2.0" stroke="none" stroke-width="1" fill="none" fill-rule="evenodd">
        <g id="数据总览" transform="translate(-1592.000000, -184.000000)">
            <g id="编组备份-4" transform="translate(1568.000000, 160.000000)">
                <g id="编组-8" transform="translate(24.000000, 24.000000)">
                    <circle id="椭圆形" fill="#2B7BF2" opacity="0.2" cx="25" cy="25" r="25"></circle>
                    <g id="数据处理" transform="translate(13.000000, 13.000000)" fill="#1A64D1">
                        <path d="M5.65384615,9.48904175 L5.65384615,11.5200768 C5.65384615,12.9128139 8.44615385,14.3996161 12.0173077,14.3996161 C15.5884615,14.3996161 18.3807692,12.9128139 18.3807692,11.5200768 L18.3807692,9.48904175 C17.1663462,10.6984482 14.7721154,11.5200768 12.0173077,11.5200768 C9.2625,11.5200768 6.86826923,10.6974884 5.65384615,9.48904175 Z M4.80576923,7.68069109 C4.80576923,5.55943049 8.03461538,3.84130539 12.0173077,3.84130539 C16,3.84130539 19.2288462,5.55943049 19.2288462,7.68069109 L19.2288462,15.3594625 C19.2288462,17.4807231 16,19.1988482 12.0173077,19.1988482 C8.03461538,19.1988482 4.80576923,17.4807231 4.80576923,15.3594625 L4.80576923,7.68069109 Z M12.0173077,10.5602304 C15.5884615,10.5602304 18.3807692,9.07342825 18.3807692,7.68069109 C18.3807692,6.28795393 15.5884615,4.80115182 12.0173077,4.80115182 C8.44615385,4.80115182 5.65384615,6.28795393 5.65384615,7.68069109 C5.65384615,9.07342825 8.44615385,10.5602304 12.0173077,10.5602304 Z M18.3807692,13.3284275 C17.1663462,14.5378339 14.7721154,15.3594625 12.0173077,15.3594625 C9.2625,15.3594625 6.86826923,14.5368741 5.65384615,13.3284275 L5.65384615,15.3594625 C5.65384615,16.7521996 8.44615385,18.2390018 12.0173077,18.2390018 C15.5884615,18.2390018 18.3807692,16.7521996 18.3807692,15.3594625 L18.3807692,13.3284275 Z" id="形状"></path>
                        <path d="M7.68365385,0.959846425 C3.17115385,2.84210526 0,7.29099344 0,12.4780035 C0,17.668853 3.175,22.1196609 7.69230769,24 L7.69230769,22.9518477 C3.72019231,21.1319789 0.961538462,17.1265398 0.961538462,12.4780035 C0.961538462,7.82946729 3.72019231,3.82402816 7.69230769,2.00415933 L7.69230769,3.8393857 L8.65384615,3.8393857 L8.65384615,0 L4.80769231,0 L4.80769231,0.959846425 L7.68365385,0.959846425 Z" id="路径"></path>
                        <path d="M17.3153846,23.0401536 C21.8288462,21.1578947 25,16.7090066 25,11.5219965 C25,6.33114702 21.825,1.88033915 17.3076923,0 L17.3076923,1.0481523 C21.2788462,2.86802112 24.0384615,6.87346025 24.0384615,11.5219965 C24.0384615,16.1705327 21.2788462,20.1759718 17.3076923,21.9958407 L17.3076923,20.1606143 L16.3461538,20.1606143 L16.3461538,24 L20.1923077,24 L20.1923077,23.0401536 L17.3153846,23.0401536 L17.3153846,23.0401536 Z" id="路径"></path>
                    </g>
                </g>
            </g>
        </g>
    </g>
</svg>