<?xml version="1.0" encoding="UTF-8"?>
<svg width="50px" height="50px" viewBox="0 0 50 50" version="1.1" xmlns="http://www.w3.org/2000/svg" xmlns:xlink="http://www.w3.org/1999/xlink">
    <g id="数据管理系统2.0" stroke="none" stroke-width="1" fill="none" fill-rule="evenodd">
        <g id="数据总览" transform="translate(-632.000000, -184.000000)">
            <g id="编组-5" transform="translate(632.000000, 184.000000)">
                <circle id="椭圆形" fill="#1FAF99" opacity="0.2" cx="25" cy="25" r="25"></circle>
                <g id="数据导出" transform="translate(14.000000, 13.000000)" fill="#00806C" fill-rule="nonzero">
                    <path d="M15.0384616,13.0495145 L15.0384616,12.1209776 C19.1749231,11.500465 22.1153846,9.87106134 22.1153846,8.36218891 C22.1153846,7.33544139 20.7530769,6.25155314 18.5769231,5.46943938 L18.5769231,4.50518954 C21.2696923,5.40337041 23,6.80331833 23,8.37558127 C23,8.43004353 22.9982308,8.48450578 22.9938077,8.53896804 L23,8.5336111 L23,19.2921394 C23,21.7206205 17.8515385,24 11.5,24 C5.14846163,24 0,21.7197277 0,19.2921394 L0,8.5336111 L0.00619242298,8.53896804 C0.00204785472,8.48460639 0,8.43010362 0,8.37558127 C0,6.80331833 1.7303078,5.40337041 4.42307702,4.50429672 L4.42307702,5.46854656 C2.24692318,6.25155314 0.884615495,7.33454857 0.884615495,8.36129608 C0.884615495,9.87016852 3.82507702,11.500465 7.96153854,12.1200848 L7.96153854,13.0486217 C4.75923086,12.6075667 2.17173087,11.5826048 0.884615495,10.2674752 L0.884615495,14.8565902 C2.61934626,16.4904579 6.71865393,17.7734459 11.5,17.7734459 C16.2813462,17.7734459 20.3806539,16.4913508 22.1153846,14.8565902 L22.1153846,10.2674752 C20.8282692,11.5826048 18.2407693,12.6075667 15.0384616,13.0495145 Z M0.884615495,19.2921394 C0.884615495,21.0242178 5.51292316,23.1964585 11.426577,23.1964585 C17.3384616,23.1964585 22.1153846,21.0242178 22.1153846,19.2921394 L22.1153846,16.0449388 C19.8773077,17.5270265 15.8452308,18.6216287 11.426577,18.6216287 C7.00703854,18.6216287 3.12269241,17.5261337 0.884615495,16.0449388 L0.884615495,19.2921394 Z" id="形状"></path>
                    <path d="M11.9423077,1.708865 L11.9423077,14.6217775 C11.9423077,14.868324 11.7442798,15.0681894 11.5000001,15.0681894 C11.2557203,15.0681894 11.0576924,14.868324 11.0576924,14.6217775 L11.0576924,1.708865 L7.390077,5.41140583 C7.21737119,5.58596076 6.93716171,5.58616063 6.76421162,5.41185224 C6.59126153,5.23754385 6.5910635,4.95473424 6.76376931,4.78017931 L11.5000001,0 L16.2362308,4.78017931 C16.4089366,4.95473425 16.4087386,5.23754384 16.2357885,5.41185223 C16.0628384,5.58616062 15.7826289,5.58596075 15.6099231,5.41140583 L11.9423077,1.708865 Z" id="路径"></path>
                </g>
            </g>
        </g>
    </g>
</svg>