<?xml version="1.0" encoding="UTF-8"?>
<svg width="50px" height="50px" viewBox="0 0 50 50" version="1.1" xmlns="http://www.w3.org/2000/svg" xmlns:xlink="http://www.w3.org/1999/xlink">
    <g id="数据管理系统2.0" stroke="none" stroke-width="1" fill="none" fill-rule="evenodd">
        <g id="数据总览" transform="translate(-1272.000000, -184.000000)">
            <g id="编组备份-3" transform="translate(1248.000000, 160.000000)">
                <g id="编组-7" transform="translate(24.000000, 24.000000)">
                    <circle id="椭圆形" fill="#975BC5" opacity="0.2" cx="25" cy="25" r="25"></circle>
                    <g id="批量生成缓存" transform="translate(13.000000, 13.000000)" fill="#A5308D">
                        <polygon id="路径" points="10.6666667 21.2656216 10.6666667 22.1488187 5.33333333 23.9849856 5.33333333 8.97063369 17.7777778 3.46301612 17.7777778 11.4117907 16.8888889 11.7182601 16.8888889 4.65268271 6.22222222 9.54736145 6.22222222 22.7953191"></polygon>
                        <polygon id="路径" points="4.44444444 20.7586664 4.44444444 21.6418635 2.66666667 22.253036 2.66666667 7.23868404 15.1111111 1.73106646 15.1111111 3.49746081 14.2222222 3.80393023 14.2222222 2.92073305 3.55555556 7.81629499 3.55555556 21.0642526"></polygon>
                        <polygon id="路径" points="1.77777778 19.0267167 1.77777778 19.9099139 0 20.5219695 0 5.50761758 12.4444444 0 12.4444444 1.76639435 11.5555556 2.07198057 11.5555556 1.1887834 0.888888889 6.08434533 0.888888889 19.3323029"></polygon>
                        <path d="M12.4444444,21.3504085 L15.1111111,21.3504085 L15.1111111,24 L12.4444444,24 L12.4444444,21.3504085 Z M12.4444444,17.8176198 L15.1111111,17.8176198 L15.1111111,20.4672113 L12.4444444,20.4672113 L12.4444444,17.8176198 Z M12.4444444,14.2848311 L15.1111111,14.2848311 L15.1111111,16.9344226 L12.4444444,16.9344226 L12.4444444,14.2848311 Z M16,21.3504085 L18.6666667,21.3504085 L18.6666667,24 L16,24 L16,21.3504085 Z M16,17.8176198 L18.6666667,17.8176198 L18.6666667,20.4672113 L16,20.4672113 L16,17.8176198 Z M19.5555556,21.3504085 L22.2222222,21.3504085 L22.2222222,24 L19.5555556,24 L19.5555556,21.3504085 Z" id="形状"></path>
                        <path d="M21.3333333,13.4016339 L24,13.4016339 L24,16.0512254 L21.3333333,16.0512254 L21.3333333,13.4016339 Z M21.4408889,16.9344226 L23.3271111,18.8076838 L21.4408889,20.6818282 L19.5555556,18.8068006 L21.4408889,16.9344226 Z M17.8853333,13.4016339 L19.7715556,15.2748951 L17.8853333,17.1490395 L16,15.2740119 L17.8853333,13.4016339 Z" id="形状"></path>
                    </g>
                </g>
            </g>
        </g>
    </g>
</svg>