<?xml version="1.0" encoding="UTF-8"?>
<svg width="24px" height="24px" viewBox="0 0 24 24" version="1.1" xmlns="http://www.w3.org/2000/svg" xmlns:xlink="http://www.w3.org/1999/xlink">
    <g id="风格设计" stroke="none" stroke-width="1" fill="none" fill-rule="evenodd">
        <g id="工具-地图控制" transform="translate(-757.000000, -302.000000)">
            <g id="地图控制展开" transform="translate(751.000000, 296.000000)">
                <g id="初始视角" transform="translate(6.000000, 6.000000)">
                    <rect id="矩形" x="0" y="0" width="24" height="24" rx="4"></rect>
                    <path d="M9.49019607,4 L7.29411765,4 C5.42745099,4 4,5.42745099 4,7.29411765 L4,9.49019607 C4,10.1490196 4.43921569,10.5882353 5.09803922,10.5882353 C5.75686274,10.5882353 6.19607844,10.1490196 6.19607844,9.49019607 L6.19607844,7.29411765 C6.19607844,6.63529413 6.63529413,6.19607844 7.29411765,6.19607844 L9.49019607,6.19607844 C10.1490196,6.19607844 10.5882353,5.75686274 10.5882353,5.09803922 C10.5882353,4.43921569 10.1490196,4 9.49019607,4 Z M9.49019607,17.8039216 L7.29411765,17.8039216 C6.63529413,17.8039216 6.19607844,17.3647059 6.19607844,16.7058823 L6.19607844,14.5098039 C6.19607844,13.8509804 5.75686274,13.4117647 5.09803922,13.4117647 C4.43921569,13.4117647 4,13.8509804 4,14.5098039 L4,16.7058823 C4,18.572549 5.42745099,20 7.29411765,20 L9.49019607,20 C10.1490196,20 10.5882353,19.5607843 10.5882353,18.9019608 C10.5882353,18.2431373 10.1490196,17.8039216 9.49019607,17.8039216 L9.49019607,17.8039216 Z M18.9019608,13.4117647 C18.2431373,13.4117647 17.8039216,13.8509804 17.8039216,14.5098039 L17.8039216,16.7058823 C17.8039216,17.3647059 17.3647059,17.8039216 16.7058823,17.8039216 L14.5098039,17.8039216 C13.8509804,17.8039216 13.4117647,18.2431373 13.4117647,18.9019608 C13.4117647,19.5607843 13.8509804,20 14.5098039,20 L16.7058823,20 C18.572549,20 20,18.572549 20,16.7058823 L20,14.5098039 C20,13.8509804 19.5607843,13.4117647 18.9019608,13.4117647 L18.9019608,13.4117647 Z M14.5098039,4 C13.8509804,4 13.4117647,4.43921569 13.4117647,5.09803922 C13.4117647,5.75686274 13.8509804,6.19607844 14.5098039,6.19607844 L16.7058823,6.19607844 C17.3647059,6.19607844 17.8039216,6.63529413 17.8039216,7.29411765 L17.8039216,9.49019607 C17.8039216,10.1490196 18.2431373,10.5882353 18.9019608,10.5882353 C19.5607843,10.5882353 20,10.1490196 20,9.49019607 L20,7.29411765 C20,5.42745099 18.572549,4 16.7058823,4 L14.5098039,4 Z M12,14 C13.1045695,14 14,13.1045695 14,12 C14,10.8954305 13.1045695,10 12,10 C10.8954305,10 10,10.8954305 10,12 C10,13.1045695 10.8954305,14 12,14 Z" id="形状" fill="#FFFFFF" fill-rule="nonzero"></path>
                </g>
            </g>
        </g>
    </g>
</svg>