<?xml version="1.0" encoding="UTF-8"?>
<svg width="17px" height="16px" viewBox="0 0 17 16" version="1.1" xmlns="http://www.w3.org/2000/svg" xmlns:xlink="http://www.w3.org/1999/xlink">
    <title>1.Base基础/3.Icon图标/其他/chart 6</title>
    <g id="数据管理系统" stroke="none" stroke-width="1" fill="none" fill-rule="evenodd">
        <g id="数据管理-登记单元" transform="translate(-16.000000, -268.000000)">
            <g id="3.Navigation导航/4.Menu-导航菜单/侧边导航/平铺/扁平风格" transform="translate(0.500000, 56.000000)">
                <g id="3.Navigation导航/4.Menu-导航菜单/基础控件/左侧导航/一级备份-10" transform="translate(0.000000, 200.000000)">
                    <g id="1.Base基础/3.Icon图标/其他/chart" transform="translate(14.000000, 10.000000)">
                        <g id="流程模板" transform="translate(2.000000, 2.000000)">
                            <path d="M15,0 C15.5522847,-1.01453063e-16 16,0.44771525 16,1 L16,12 C16,12.5522847 15.5522847,13 15,13 L1,13 C0.44771525,13 6.76353751e-17,12.5522847 0,12 L0,1 C-6.76353751e-17,0.44771525 0.44771525,1.01453063e-16 1,0 L15,0 Z M13.1538462,1.5 L2.84615385,1.5 C2.2938691,1.5 1.84615385,1.94771525 1.84615385,2.5 L1.84615385,10.5 C1.84615385,11.0522847 2.2938691,11.5 2.84615385,11.5 L13.1538462,11.5 C13.7061309,11.5 14.1538462,11.0522847 14.1538462,10.5 L14.1538462,2.5 C14.1538462,1.94771525 13.7061309,1.5 13.1538462,1.5 Z" id="形状结合" fill="#ABB2BE"></path>
                            <rect id="矩形" fill="#ABB2BE" x="3" y="13" width="10" height="1"></rect>
                            <rect id="矩形" fill="#ABB2BE" x="0" y="14" width="16" height="2"></rect>
                            <polygon id="路径" fill="#0E69F0" fill-rule="nonzero" points="3 5.63934426 4.6 5.63934426 4.6 9.08196721 9.1 9.08196721 9.1 10 13 10 13 7.36065574 12.2 7.36065574 12.2 3.91803279 7.6 3.91803279 7.6 4.72131148 11.4 4.72131148 11.4 7.36065574 9.1 7.36065574 9.1 8.27868852 5.3 8.27868852 5.3 5.63934426 6.9 5.63934426 6.9 3 3 3"></polygon>
                        </g>
                    </g>
                </g>
            </g>
        </g>
    </g>
</svg>