<?xml version="1.0" encoding="UTF-8"?>
<svg width="45px" height="38px" viewBox="0 0 45 38" version="1.1" xmlns="http://www.w3.org/2000/svg" xmlns:xlink="http://www.w3.org/1999/xlink">
    <defs>
        <linearGradient x1="52.8824474%" y1="173.212368%" x2="52.8824474%" y2="0%" id="linearGradient-1">
            <stop stop-color="#232323" stop-opacity="0" offset="0%"></stop>
            <stop stop-color="#063F3B" stop-opacity="0.500949246" offset="100%"></stop>
        </linearGradient>
        <linearGradient x1="50%" y1="0%" x2="50%" y2="100%" id="linearGradient-2">
            <stop stop-color="#448C6E" offset="0%"></stop>
            <stop stop-color="#3CBEB5" offset="100%"></stop>
        </linearGradient>
    </defs>
    <g id="风格设计" stroke="none" stroke-width="1" fill="none" fill-rule="evenodd">
        <g id="工具-地图控制" transform="translate(-126.000000, -495.000000)">
            <g id="编组-2" transform="translate(127.000000, 496.000000)">
                <path d="M6.72075922,0 L41.8344768,0 C42.3867616,-1.01453063e-16 42.8344768,0.44771525 42.8344768,1 L42.8344768,35 C42.8344768,35.5522847 42.3867616,36 41.8344768,36 L6.72075922,36 C6.29032881,36 5.90818997,35.7245699 5.77207592,35.3162278 L0,18 L0,18 L5.77207592,0.683772234 C5.90818997,0.275430095 6.29032881,9.67247203e-16 6.72075922,0 Z" id="矩形" stroke="#3CBEB5" fill-opacity="0.5" fill="url(#linearGradient-1)"></path>
                <path d="M23,9 C27.9705648,9 32,13.0294352 32,18 C32,22.9705648 27.9705648,27 23,27 C18.0294352,27 14,22.9705648 14,18 C14,13.0294352 18.0294352,9 23,9 Z M23,22.0184502 C22.272384,22.0184502 21.5612242,22.120987 20.8830756,22.316939 C21.3919004,24.3099107 22.2103381,25.6051661 23,25.6051661 C23.7896619,25.6051661 24.6080996,24.3099107 25.116433,22.3176885 C24.4387971,22.1209865 23.7276287,22.0184502 23,22.0184502 Z M19.5705219,22.8341133 L19.5386627,22.8495206 C19.0242416,23.1128027 18.5398789,23.4351215 18.0948042,23.8113914 C18.8025448,24.4098525 19.6201129,24.8804099 20.5131361,25.1892682 C20.1343531,24.5406744 19.8166813,23.7422455 19.5705219,22.8341133 Z M26.4296352,22.8333694 L26.3782144,23.0180423 C26.1397855,23.8502587 25.8398888,24.5848195 25.4872753,25.1891386 C26.3798871,24.8804099 27.1974552,24.4098525 27.9045555,23.8126086 C27.4510202,23.4273911 26.9558824,23.0995822 26.4296352,22.8333694 Z M18.9924677,18.6979434 L15.4263956,18.697545 C15.5678195,20.2528291 16.1774976,21.6728484 17.1132903,22.8154634 C17.7634358,22.2525877 18.487131,21.7880639 19.262801,21.4337996 C19.1151718,20.5797376 19.0226977,19.6590598 18.9924677,18.6979434 Z M30.5736044,18.697545 L27.0075323,18.6979434 C26.9773023,19.6590598 26.8848282,20.5797376 26.736771,21.4351746 C27.5129065,21.7880614 28.2366041,22.2525852 28.8868411,22.8155739 C29.8225024,21.6728484 30.4321805,20.2528291 30.5736044,18.697545 Z M25.6113196,18.6982922 L20.3886804,18.6982922 C20.4178623,19.5246236 20.4979202,20.3109461 20.6174349,21.037099 L20.6029801,20.9466588 C21.3730677,20.7344731 22.1778597,20.6236162 23,20.6236162 C23.822152,20.6236162 24.6269519,20.7344725 25.3970453,20.9466577 C25.5085084,20.2469118 25.5833247,19.4910121 25.6113196,18.6982922 Z M17.1132016,13.1844245 L17.0861541,13.2178611 C16.1657153,14.3547095 15.5664479,15.7622554 15.4263956,17.302455 L18.9924677,17.3020566 C19.0226977,16.3409402 19.1151718,15.4202624 19.263229,14.5648254 C18.487131,14.2119361 17.7634358,13.7474123 17.1132016,13.1844245 Z M23,15.3763838 C22.1778597,15.3763838 21.3730677,15.2655269 20.6029801,15.0533412 C20.4914916,15.7530882 20.4166753,16.5089879 20.3886804,17.3017078 L25.6113196,17.3017078 C25.5821377,16.4753764 25.5020798,15.6890539 25.3825651,14.962901 L25.3970453,15.0533423 C24.6269519,15.2655275 23.822152,15.3763838 23,15.3763838 Z M28.8867097,13.1845366 L28.6787263,13.3592184 C28.0834079,13.8441509 27.4311167,14.2492934 26.7372326,14.5662025 C26.8848282,15.4202624 26.9773023,16.3409402 27.0075323,17.3020566 L30.5736044,17.302455 C30.4321805,15.7471709 29.8225024,14.3271516 28.8867097,13.1845366 Z M23,10.3948339 L22.9046246,10.4010778 C22.1450201,10.5001263 21.3714601,11.7701973 20.883567,13.6823115 C21.5612242,13.879013 22.272384,13.9815498 23,13.9815498 C23.7276287,13.9815498 24.4387971,13.8790135 25.1169517,13.6830619 C24.6080996,11.6900893 23.7896619,10.3948339 23,10.3948339 Z M20.5127247,10.8108614 L20.4193857,10.8438491 C19.5628585,11.1527777 18.7777268,11.6111097 18.0954445,12.1873914 C18.5490214,12.5726076 19.0441571,12.9004162 19.5704014,13.1666291 C19.8166813,12.2577545 20.1343531,11.4593256 20.5127247,10.8108614 Z M25.4868639,10.8107318 L25.5298454,10.8849029 C25.8895178,11.5197341 26.1926067,12.29202 26.4294781,13.1658867 C26.9558824,12.9004178 27.4510202,12.5726089 27.9052396,12.1886091 C27.1974552,11.5901475 26.3798871,11.1195901 25.4868639,10.8107318 Z" id="形状结合" fill="url(#linearGradient-2)" fill-rule="nonzero"></path>
            </g>
        </g>
    </g>
</svg>