<?xml version="1.0" encoding="UTF-8"?>
<svg width="16px" height="16px" viewBox="0 0 16 16" version="1.1" xmlns="http://www.w3.org/2000/svg" xmlns:xlink="http://www.w3.org/1999/xlink">
    <title>样式设置</title>
    <g id="三维库-标化过程0.2" stroke="none" stroke-width="1" fill="none" fill-rule="evenodd">
        <g id="三维库-2022年10月标化产品版" transform="translate(-439.000000, -595.000000)">
            <g id="样式设置" transform="translate(439.000000, 595.000000)">
                <rect id="矩形" fill-opacity="0.01" fill="#FFFFFF" fill-rule="nonzero" x="0" y="0" width="16" height="16"></rect>
                <path d="M7.99638589,1 C4.13238866,1 1,4.13238866 1,7.99638589 C1,11.8603831 4.13238866,14.9927718 7.99638589,14.9927718 C8.63499762,14.9769327 9.14894326,14.4629871 9.16478233,13.8243753 C9.16478233,13.509538 9.08782209,13.2786572 8.85694135,13.0477765 C8.70302086,12.8168958 8.54210399,12.5790186 8.54210399,12.2711777 C8.55794306,11.6325659 9.07188869,11.1186203 9.71050043,11.1027812 L11.1097776,11.1027812 C12.1449066,11.1141365 13.1409522,10.7079468 13.872943,9.97595604 C14.6049337,9.24396529 15.0111234,8.24791963 14.9997682,7.21279067 C14.9927718,3.79855435 11.8863764,1 7.99638589,1 Z M3.72159411,7.99638589 C3.08298238,7.98054682 2.56903674,7.46660118 2.55319767,6.82798944 C2.56903674,6.18937771 3.08298238,5.67543207 3.72159411,5.659593 C4.36020585,5.67543207 4.87415148,6.18937771 4.88999055,6.82798944 C4.87415148,7.46660118 4.36020585,7.98054682 3.72159411,7.99638589 Z M6.05139061,4.88299417 C5.41277888,4.8671551 4.89883324,4.35320946 4.88299417,3.71459772 C4.89883324,3.07598599 5.41277888,2.56204035 6.05139061,2.54620128 C6.69000235,2.56204035 7.20394798,3.07598599 7.21978705,3.71459772 C7.20642531,4.35426891 6.69106179,4.86963242 6.05139061,4.88299417 L6.05139061,4.88299417 Z M9.94138116,4.88299417 C9.30276943,4.8671551 8.78882379,4.35320946 8.77298472,3.71459772 C8.77298472,3.06931019 9.29609363,2.54620128 9.94138116,2.54620128 C10.5866687,2.54620128 11.1097776,3.06931019 11.1097776,3.71459772 C11.1027812,4.34427245 10.5640595,4.88299417 9.94138116,4.88299417 L9.94138116,4.88299417 Z M12.2711777,7.99638589 C11.6325659,7.98054682 11.1186203,7.46660118 11.1027812,6.82798944 C11.1027812,6.18270191 11.6258901,5.659593 12.2711777,5.659593 C12.9164652,5.659593 13.4395741,6.18270191 13.4395741,6.82798944 C13.423735,7.46660118 12.9097894,7.98054682 12.2711777,7.99638589 L12.2711777,7.99638589 Z" id="形状" fill="#505A6C"></path>
            </g>
        </g>
    </g>
</svg>